# xmcd CD database file
#
# Track frame offsets:
#	150
#	20477
#	34921
#	50542
#	66546
#	85237
#	110621
#	126021
#	145366
#	156270
#	171782
#	191092
#	215724
#
# Disc length: 3096 seconds
#
# Revision: 0
# Processed by: cddbd v1.5.2PL0 Copyright (c) Steve Scherf et al.
# Submitted via: CDex 1.51
#
DISCID=c60c160d
DTITLE=Robert Walter - Cure All
DYEAR=2008
DGENRE=Jazz
TTITLE0=Robert Walter - Snakes and Spiders
TTITLE1=Robert Walter - Money Changes
TTITLE2=Robert Walter - Cure All
TTITLE3=Robert Walter - Coupe
TTITLE4=Robert Walter - Scores of Spores
TTITLE5=Robert Walter - Parts and Holes
TTITLE6=Robert Walter - Rivers of Babylon
TTITLE7=Robert Walter - Maple Plank
TTITLE8=Robert Walter - Box of Glass
TTITLE9=Robert Walter - Measure Up
TTITLE10=Robert Walter - Hillary Street
TTITLE11=Robert Walter - Bulldog Run
TTITLE12=Robert Walter - T
EXTD=YEAR: 2008
EXTT0=
EXTT1=
EXTT2=
EXTT3=
EXTT4=
EXTT5=
EXTT6=
EXTT7=
EXTT8=
EXTT9=
EXTT10=
EXTT11=
EXTT12=
PLAYORDER=
